<?xml version="1.0" standalone="yes"?>
<!DOCTYPE svg PUBLIC "-//W3C//DTD SVG 1.1//EN" "http://www.w3.org/Graphics/SVG/1.1/DTD/svg11.dtd"[
<!ENTITY E21 'stroke:none;opacity:1;fill:rgb(68,154,223);'><!ENTITY E29 'matrix(1.00 0.00 0.00 1.00 244.00 84.00 ) '><!ENTITY E12 'matrix(1.00 0.00 0.00 1.00 0.00 0.00 ) '><!ENTITY E7 'stroke:none;fill-rule:evenodd;opacity:1;fill:rgb(255,255,255);'><!ENTITY E3 'stroke:rgb(169,169,169);fill:none;stroke-linecap:butt;stroke-miterlimit:9;opacity:1;stroke-width:2;stroke-linejoin:miter;'><!ENTITY E24 'M 5.5001 19.484 10.6493 19.484 16.2743 10.2485 19.3728 10.2485 M 14.6769 17.1481 16.3089 19.4828 19.2202 19.4828 M 5.500199 10.2437 10.7586 10.2437 12.1652 12.8707 '><!ENTITY E22 'M 19.156 13.888 19.156 10.3647 19.156 6.841399 25.2585 10.3647 22.2072 12.1264 z '><!ENTITY E23 'M 19.156 22.97 19.156 19.4467 19.156 15.9234 25.2585 19.4467 22.2072 21.2084 z '><!ENTITY E25 'stroke:rgb(255,255,255);fill:none;stroke-linecap:butt;stroke-miterlimit:9;opacity:1;stroke-width:2;stroke-linejoin:miter;'><!ENTITY E1 'stroke:rgb(169,169,169);fill:none;stroke-linecap:butt;stroke-miterlimit:9;opacity:1;stroke-width:1;stroke-linejoin:miter;'><!ENTITY E39 'matrix(1.00 0.00 0.00 1.00 4.00 4.00 ) '><!ENTITY E10 'stroke:none;opacity:1;fill:rgb(255,255,255);'><!ENTITY E34 'matrix(1.00 0.00 0.00 1.00 164.00 4.00 ) '><!ENTITY E17 'M 14.901 4 C 11.0958 4.041768 7.579 6.0409 5.5954 9.2875 2.4509 14.4779 4.0981 21.2285 9.2787 24.3935 10.9214 25.3944 12.8223 25.9511 14.7429 25.998 20.8126 26.12705 25.8419 21.3253 25.9969 15.26 26.15179 9.060902 21.1469 3.969001 14.9489 4.003001 L 14.9433 4.001161 z M 14.73937 5.188401 C 17.52417 7.216301 19.08127 10.5257 18.86557 13.9659 18.7377 16.0673 17.77447 18.0306 16.18947 19.4188 15.33871 20.1708 14.33787 20.7308 13.25237 21.0618 11.36677 20.67958 9.754669 19.487 8.830269 17.8216 9.228148 18.02246 9.668829 18.15156 10.14077 18.18182 12.42537 18.32544 14.39417 16.59322 14.54087 14.30952 14.71283 11.54332 12.61217 9.16222 9.844969 8.985319 8.815669 8.919683 7.792169 9.12048 6.865669 9.55689 8.620969 6.92299 11.55057 5.285689 14.73947 5.18829 z M 16.83287 5.34083 C 23.26867 6.50733 26.84287 13.60533 23.79687 19.50683 20.80297 25.30663 13.16087 26.56563 8.454869 22.27283 9.254379 22.54196 10.09547 22.67579 10.94167 22.66245 11.80529 22.66245 12.63827 22.54333 13.42847 22.32061 L 13.47442 22.30958 13.4928 22.30228 13.50383 22.29858 C 17.22683 21.21248 19.87173 17.91398 20.12043 14.04478 20.32503 10.79748 19.11903 7.63168 16.83233 5.34068 z M 9.45293 10.23668 9.458441 10.23668 C 11.65504 10.19976 13.41574 12.04338 13.27954 14.23398 13.20474 15.34998 12.49749 16.29628 11.50224 16.70768 13.32574 14.66398 10.75205 11.14958 8.085442 12.85008 L 8.067062 12.85738 8.050522 12.86841 C 6.491322 13.93221 5.703022 15.16561 5.324822 16.42831 5.110112 14.96791 5.224202 13.47451 5.668512 12.05971 6.587982 10.91071 7.979812 10.23851 9.452911 10.23661 z M 6.885311 15.91561 C 7.102691 18.23541 8.708911 20.24261 10.70091 21.39431 10.61139 21.39231 10.52174 21.39141 10.43257 21.38701 8.856771 21.28811 7.378571 20.59025 6.29897 19.44071 6.223126 18.22791 6.29418 17.02271 6.88528 15.91571 z '><!ENTITY E4 'matrix(1.00 0.00 0.00 1.00 324.00 4.00 ) '><!ENTITY E20 'matrix(1.00 0.00 0.00 1.00 244.00 4.00 ) '><!ENTITY E6 'M 11.656 8.2 11.99975 8.7 16.31225 14.7937 11.65605 21.4187 11.28105 21.9187 14.74985 21.9187 14.8436 21.7624 17.9998 17.0124 18.46855 17.7 21.15605 21.7624 21.2498 21.9187 24.7498 21.9187 24.40605 21.4187 19.65605 14.6687 24.06225 8.699997 24.406 8.199997 20.9998 8.199997 20.90605 8.324997 18.68725 11.4187 C 18.46251 11.7285 18.22333 12.1062 17.9685 12.4812 17.77046 12.1547 17.58677 11.8424 17.31225 11.4187 L 15.28105 8.356197 15.1873 8.199997 11.6561 8.199997 z '><!ENTITY E14 'matrix(1.00 0.00 0.00 1.00 324.00 84.00 ) '><!ENTITY E30 'stroke:none;opacity:1;fill:rgb(91,178,126);'><!ENTITY E36 'matrix(1.00 0.00 0.00 1.00 84.00 4.00 ) '><!ENTITY E28 'M 31.179 5.2 C 34.9985 11.0918 34.9814 18.682 31.13552 24.557 '>
]>
<svg width="387.9904" height="146.6504" id="SvgGdi_output" xmlns="http://www.w3.org/2000/svg" xmlns:xlink="http://www.w3.org/1999/xlink">
  <style>text { fill: #000; } @media (prefers-color-scheme: dark) { text { fill: #eee; } }</style>
  <rect id="background" height="100.00%" style="fill:none;" width="100.00%" y="0.00" x="0.00" />
  <g style="shape-rendering:auto;" id="root_group">
    <line y1="19.00" style="stroke:rgb(169,169,169);fill:none;stroke-linecap:butt;stroke-miterlimit:9;opacity:1;stroke-width:1;stroke-linejoin:miter;" id="2" x2="320.00" y2="19.00" x1="278.00" />
    <line y1="99.00" style="stroke:rgb(169,169,169);fill:none;stroke-linecap:butt;stroke-miterlimit:9;opacity:1;stroke-width:1;stroke-linejoin:miter;" id="3" x2="320.00" y2="99.00" x1="278.00" />
    <line y1="19.00" style="stroke:rgb(169,169,169);fill:none;stroke-linecap:butt;stroke-miterlimit:9;opacity:1;stroke-width:1;stroke-linejoin:miter;" id="4" x2="240.00" y2="19.00" x1="198.00" />
    <line y1="19.00" style="stroke:rgb(169,169,169);fill:none;stroke-linecap:butt;stroke-miterlimit:9;opacity:1;stroke-width:1;stroke-linejoin:miter;" id="5" x2="160.00" y2="19.00" x1="118.00" />
    <line y1="19.00" style="stroke:rgb(169,169,169);fill:none;stroke-linecap:butt;stroke-miterlimit:9;opacity:1;stroke-width:1;stroke-linejoin:miter;" id="6" x2="80.00" y2="19.00" x1="38.00" />
    <path style="stroke:rgb(169,169,169);fill:none;stroke-linecap:butt;stroke-miterlimit:9;opacity:1;stroke-width:2;stroke-linejoin:miter;" transform="matrix(1.00 0.00 0.00 1.00 324.00 4.00 ) " id="40" d="M 10.158 33.2 C 3.4054 31.7591 -1.861 26.4692 -3.271 19.71 " />
    <ellipse id="41" cy="15.00" cx="15.00" transform="matrix(1.00 0.00 0.00 1.00 324.00 4.00 ) " rx="15.00" ry="15.00" style="stroke:none;opacity:1;fill:rgb(155,91,179);" />
    <path d="M 11.656 8.2 11.99975 8.7 16.31225 14.7937 11.65605 21.4187 11.28105 21.9187 14.74985 21.9187 14.8436 21.7624 17.9998 17.0124 18.46855 17.7 21.15605 21.7624 21.2498 21.9187 24.7498 21.9187 24.40605 21.4187 19.65605 14.6687 24.06225 8.699997 24.406 8.199997 20.9998 8.199997 20.90605 8.324997 18.68725 11.4187 C 18.46251 11.7285 18.22333 12.1062 17.9685 12.4812 17.77046 12.1547 17.58677 11.8424 17.31225 11.4187 L 15.28105 8.356197 15.1873 8.199997 11.6561 8.199997 z " style="stroke:none;fill-rule:evenodd;opacity:1;fill:rgb(255,255,255);" transform="matrix(1.00 0.00 0.00 1.00 324.00 4.00 ) " id="49" />
    <path transform="matrix(1.00 0.00 0.00 1.00 324.00 4.00 ) " id="50" d="M 9.4157 11.456 6.5241 13.2088 9.436001 14.9739 " style="stroke:rgb(255,255,255);fill:none;stroke-linecap:butt;stroke-miterlimit:9;opacity:1;stroke-width:1;stroke-linejoin:miter;" />
    <ellipse id="51" cy="10.98" cx="10.22" transform="matrix(1.00 0.00 0.00 1.00 324.00 4.00 ) " rx="1.27" ry="1.27" style="stroke:none;opacity:1;fill:rgb(255,255,255);" />
    <ellipse id="52" cy="15.44" cx="10.24" transform="matrix(1.00 0.00 0.00 1.00 324.00 4.00 ) " rx="1.27" ry="1.27" style="stroke:none;opacity:1;fill:rgb(255,255,255);" />
    <ellipse id="53" cy="13.24" cx="6.19" transform="matrix(1.00 0.00 0.00 1.00 324.00 4.00 ) " rx="1.27" ry="1.27" style="stroke:none;opacity:1;fill:rgb(255,255,255);" />
    <text id="54" transform="matrix(1.00 0.00 0.00 1.00 0.00 0.00 ) " x="324.00px" y="39.00px" style="stroke:none;clip-path:url(#56_text_clipper);font-family:Microsoft Sans Serif;font-size:8.25pt;opacity:1;">
      <tspan dy="8.25pt" id="58">Manipulator</tspan>
    </text>
    <text id="60" transform="matrix(1.00 0.00 0.00 1.00 0.00 0.00 ) " x="324.00px" y="51.45px" style="stroke:none;clip-path:url(#62_text_clipper);font-family:Microsoft Sans Serif;font-size:8.25pt;opacity:1;">
      <tspan dy="8.25pt" id="64">Settings</tspan>
    </text>
    <ellipse id="68" cy="15.00" cx="15.00" transform="matrix(1.00 0.00 0.00 1.00 324.00 84.00 ) " rx="15.00" ry="15.00" style="stroke:none;opacity:1;fill:rgb(238,192,75);" />
    <path style="stroke:rgb(169,169,169);fill:none;stroke-linecap:butt;stroke-miterlimit:9;opacity:1;stroke-width:2;stroke-linejoin:miter;" transform="matrix(1.00 0.00 0.00 1.00 324.00 84.00 ) " id="71" d="M 1.5363 7.8 C 1.99103 6.9385 2.52798 6.1205 3.1403 5.3587 3.7527 4.5967 4.4403 3.8909 5.1968 3.254 5.95315 2.617 6.7782 2.049 7.665299 1.5627 M 0.4537992 19.4997 C 0.1435492 18.4956 -0.05714077 17.4835 -0.1564507 16.4769 -0.2551987 15.4701 -0.2516447 14.4684 -0.1525816 13.4844 -0.05334165 12.5007 0.1414284 11.5347 0.4251484 10.5993 M 7.892348 28.3993 C 7.030958 27.9447 6.212848 27.4077 5.450948 26.7954 4.689008 26.1831 3.983248 25.4954 3.346348 24.739 2.709558 23.9826 2.141548 23.1575 1.655148 22.2704 M 19.49415 29.4993 C 18.48995 29.8096 17.47785 30.0103 16.47125 30.1096 15.46445 30.2084 14.46285 30.2049 13.47895 30.1018 12.49507 30.0028 11.52915 29.8079 10.59365 29.5242 M 28.46365 22.0993 C 28.00892 22.9606 27.472 23.7788 26.85965 24.5407 26.24738 25.3026 25.55945 26.0084 24.80315 26.6453 24.0468 27.2822 23.22175 27.8502 22.33465 28.3365 M 29.54565 10.4995 C 29.85594 11.5037 30.05659 12.5157 30.15594 13.5224 30.25481 14.5292 30.25114 15.531 30.15199 16.5147 30.05279 17.4986 29.85802 18.4646 29.5743 19.4 M 22.10769 1.499998 C 22.96908 1.954698 23.7872 2.491698 24.5491 3.103898 25.31104 3.716298 26.0168 4.404098 26.65369 5.160398 27.29052 5.916898 27.85859 6.741898 28.34499 7.629098 M 10.50499 0.3999977 C 11.50919 0.08969772 12.52109 -0.1109023 13.52779 -0.2103023 14.53469 -0.3090023 15.53619 -0.3055023 16.52009 -0.2103023 17.50401 -0.1111023 18.46999 0.08369771 19.40549 0.3673977 " />
    <path d="M 14.901 4 C 11.0958 4.041768 7.579 6.0409 5.5954 9.2875 2.4509 14.4779 4.0981 21.2285 9.2787 24.3935 10.9214 25.3944 12.8223 25.9511 14.7429 25.998 20.8126 26.12705 25.8419 21.3253 25.9969 15.26 26.15179 9.060902 21.1469 3.969001 14.9489 4.003001 L 14.9433 4.001161 z M 14.73937 5.188401 C 17.52417 7.216301 19.08127 10.5257 18.86557 13.9659 18.7377 16.0673 17.77447 18.0306 16.18947 19.4188 15.33871 20.1708 14.33787 20.7308 13.25237 21.0618 11.36677 20.67958 9.754669 19.487 8.830269 17.8216 9.228148 18.02246 9.668829 18.15156 10.14077 18.18182 12.42537 18.32544 14.39417 16.59322 14.54087 14.30952 14.71283 11.54332 12.61217 9.16222 9.844969 8.985319 8.815669 8.919683 7.792169 9.12048 6.865669 9.55689 8.620969 6.92299 11.55057 5.285689 14.73947 5.18829 z M 16.83287 5.34083 C 23.26867 6.50733 26.84287 13.60533 23.79687 19.50683 20.80297 25.30663 13.16087 26.56563 8.454869 22.27283 9.254379 22.54196 10.09547 22.67579 10.94167 22.66245 11.80529 22.66245 12.63827 22.54333 13.42847 22.32061 L 13.47442 22.30958 13.4928 22.30228 13.50383 22.29858 C 17.22683 21.21248 19.87173 17.91398 20.12043 14.04478 20.32503 10.79748 19.11903 7.63168 16.83233 5.34068 z M 9.45293 10.23668 9.458441 10.23668 C 11.65504 10.19976 13.41574 12.04338 13.27954 14.23398 13.20474 15.34998 12.49749 16.29628 11.50224 16.70768 13.32574 14.66398 10.75205 11.14958 8.085442 12.85008 L 8.067062 12.85738 8.050522 12.86841 C 6.491322 13.93221 5.703022 15.16561 5.324822 16.42831 5.110112 14.96791 5.224202 13.47451 5.668512 12.05971 6.587982 10.91071 7.979812 10.23851 9.452911 10.23661 z M 6.885311 15.91561 C 7.102691 18.23541 8.708911 20.24261 10.70091 21.39431 10.61139 21.39231 10.52174 21.39141 10.43257 21.38701 8.856771 21.28811 7.378571 20.59025 6.29897 19.44071 6.223126 18.22791 6.29418 17.02271 6.88528 15.91571 z " style="stroke:none;fill-rule:evenodd;opacity:1;fill:rgb(255,255,255);" transform="matrix(1.00 0.00 0.00 1.00 324.00 84.00 ) " id="74" />
    <text id="75" transform="matrix(1.00 0.00 0.00 1.00 0.00 0.00 ) " x="324.00px" y="119.00px" style="stroke:none;clip-path:url(#77_text_clipper);font-family:Microsoft Sans Serif;font-size:8.25pt;opacity:1;">
      <tspan dy="8.25pt" id="79">Aind</tspan>
    </text>
    <text id="81" transform="matrix(1.00 0.00 0.00 1.00 0.00 0.00 ) " x="324.00px" y="131.45px" style="stroke:none;clip-path:url(#83_text_clipper);font-family:Microsoft Sans Serif;font-size:8.25pt;opacity:1;">
      <tspan dy="8.25pt" id="85">Manipulator</tspan>
    </text>
    <ellipse id="89" cy="15.00" cx="15.00" transform="matrix(1.00 0.00 0.00 1.00 244.00 4.00 ) " rx="15.00" ry="15.00" style="stroke:none;opacity:1;fill:rgb(68,154,223);" />
    <path d="M 19.156 13.888 19.156 10.3647 19.156 6.841399 25.2585 10.3647 22.2072 12.1264 z " style="stroke:none;fill-rule:evenodd;opacity:1;fill:rgb(255,255,255);" transform="matrix(1.00 0.00 0.00 1.00 244.00 4.00 ) " id="94" />
    <path d="M 19.156 22.97 19.156 19.4467 19.156 15.9234 25.2585 19.4467 22.2072 21.2084 z " style="stroke:none;fill-rule:evenodd;opacity:1;fill:rgb(255,255,255);" transform="matrix(1.00 0.00 0.00 1.00 244.00 4.00 ) " id="95" />
    <path d="M 5.5001 19.484 10.6493 19.484 16.2743 10.2485 19.3728 10.2485 M 14.6769 17.1481 16.3089 19.4828 19.2202 19.4828 M 5.500199 10.2437 10.7586 10.2437 12.1652 12.8707 " style="stroke:rgb(255,255,255);fill:none;stroke-linecap:butt;stroke-miterlimit:9;opacity:1;stroke-width:2;stroke-linejoin:miter;" transform="matrix(1.00 0.00 0.00 1.00 244.00 4.00 ) " id="96" />
    <text id="97" transform="matrix(1.00 0.00 0.00 1.00 0.00 0.00 ) " x="244.00px" y="39.00px" style="stroke:none;clip-path:url(#99_text_clipper);font-family:Microsoft Sans Serif;font-size:8.25pt;opacity:1;">
      <tspan dy="8.25pt" id="101">Calibration.</tspan>
    </text>
    <text id="103" transform="matrix(1.00 0.00 0.00 1.00 0.00 0.00 ) " x="244.00px" y="51.45px" style="stroke:none;clip-path:url(#105_text_clipper);font-family:Microsoft Sans Serif;font-size:8.25pt;opacity:1;">
      <tspan dy="8.25pt" id="107">Input</tspan>
    </text>
    <path d="M 31.179 5.2 C 34.9985 11.0918 34.9814 18.682 31.13552 24.557 " style="stroke:rgb(169,169,169);fill:none;stroke-linecap:butt;stroke-miterlimit:9;opacity:1;stroke-width:2;stroke-linejoin:miter;" transform="matrix(1.00 0.00 0.00 1.00 244.00 84.00 ) " id="112" />
    <ellipse id="113" cy="15.00" cx="15.00" transform="matrix(1.00 0.00 0.00 1.00 244.00 84.00 ) " rx="15.00" ry="15.00" style="stroke:none;opacity:1;fill:rgb(91,178,126);" />
    <path style="stroke:none;fill-rule:evenodd;opacity:1;fill:rgb(255,255,255);" transform="matrix(1.00 0.00 0.00 1.00 244.00 84.00 ) " id="117" d="M 4.4028 13 4.93347 11.3266 C 6.15637 11.7667 7.04467 12.1477 7.598371 12.4698 7.45224 11.0476 7.37533 10.0696 7.36764 9.5352 L 9.040441 9.5352 C 9.017365 10.3131 8.92891 11.2873 8.775101 12.4581 9.567261 12.0495 10.4748 11.6723 11.4977 11.3266 L 12.02837 13 C 11.05162 13.3302 10.09407 13.5502 9.155771 13.6601 9.624911 14.0766 10.28637 14.819 11.14007 15.8877 L 9.755671 16.8894 C 9.30959 16.2687 8.782761 15.4241 8.175171 14.3554 7.606041 15.4633 7.106171 16.308 6.675471 16.8894 L 5.314171 15.8877 C 6.206311 14.7642 6.844671 14.0216 7.229171 13.6601 6.237041 13.4637 5.294871 13.2437 4.402771 13 z " />
    <path d="M 11.656 8.2 11.99975 8.7 16.31225 14.7937 11.65605 21.4187 11.28105 21.9187 14.74985 21.9187 14.8436 21.7624 17.9998 17.0124 18.46855 17.7 21.15605 21.7624 21.2498 21.9187 24.7498 21.9187 24.40605 21.4187 19.65605 14.6687 24.06225 8.699997 24.406 8.199997 20.9998 8.199997 20.90605 8.324997 18.68725 11.4187 C 18.46251 11.7285 18.22333 12.1062 17.9685 12.4812 17.77046 12.1547 17.58677 11.8424 17.31225 11.4187 L 15.28105 8.356197 15.1873 8.199997 11.6561 8.199997 z " style="stroke:none;fill-rule:evenodd;opacity:1;fill:rgb(255,255,255);" transform="matrix(1.00 0.00 0.00 1.00 244.00 84.00 ) " id="118" />
    <text id="119" transform="matrix(1.00 0.00 0.00 1.00 0.00 0.00 ) " x="244.00px" y="119.00px" style="stroke:none;clip-path:url(#121_text_clipper);font-family:Microsoft Sans Serif;font-size:8.25pt;opacity:1;">
      <tspan dy="8.25pt" id="123">Manipulator</tspan>
    </text>
    <text id="125" transform="matrix(1.00 0.00 0.00 1.00 0.00 0.00 ) " x="244.00px" y="131.45px" style="stroke:none;clip-path:url(#127_text_clipper);font-family:Microsoft Sans Serif;font-size:8.25pt;opacity:1;">
      <tspan dy="8.25pt" id="129">Settings</tspan>
    </text>
    <ellipse id="131" cy="15.00" cx="15.00" transform="matrix(1.00 0.00 0.00 1.00 164.00 4.00 ) " rx="15.00" ry="15.00" style="stroke:none;opacity:1;fill:rgb(68,154,223);" />
    <path d="M 19.156 13.888 19.156 10.3647 19.156 6.841399 25.2585 10.3647 22.2072 12.1264 z " style="stroke:none;fill-rule:evenodd;opacity:1;fill:rgb(255,255,255);" transform="matrix(1.00 0.00 0.00 1.00 164.00 4.00 ) " id="132" />
    <path d="M 19.156 22.97 19.156 19.4467 19.156 15.9234 25.2585 19.4467 22.2072 21.2084 z " style="stroke:none;fill-rule:evenodd;opacity:1;fill:rgb(255,255,255);" transform="matrix(1.00 0.00 0.00 1.00 164.00 4.00 ) " id="133" />
    <path d="M 5.5001 19.484 10.6493 19.484 16.2743 10.2485 19.3728 10.2485 M 14.6769 17.1481 16.3089 19.4828 19.2202 19.4828 M 5.500199 10.2437 10.7586 10.2437 12.1652 12.8707 " style="stroke:rgb(255,255,255);fill:none;stroke-linecap:butt;stroke-miterlimit:9;opacity:1;stroke-width:2;stroke-linejoin:miter;" transform="matrix(1.00 0.00 0.00 1.00 164.00 4.00 ) " id="134" />
    <text id="135" transform="matrix(1.00 0.00 0.00 1.00 0.00 0.00 ) " x="164.00px" y="39.00px" style="stroke:none;clip-path:url(#137_text_clipper);font-family:Microsoft Sans Serif;font-size:8.25pt;opacity:1;">
      <tspan dy="8.25pt" id="139">Manipulator</tspan>
    </text>
    <ellipse id="141" cy="15.00" cx="15.00" transform="matrix(1.00 0.00 0.00 1.00 84.00 4.00 ) " rx="15.00" ry="15.00" style="stroke:none;opacity:1;fill:rgb(68,154,223);" />
    <path d="M 14.901 4 C 11.0958 4.041768 7.579 6.0409 5.5954 9.2875 2.4509 14.4779 4.0981 21.2285 9.2787 24.3935 10.9214 25.3944 12.8223 25.9511 14.7429 25.998 20.8126 26.12705 25.8419 21.3253 25.9969 15.26 26.15179 9.060902 21.1469 3.969001 14.9489 4.003001 L 14.9433 4.001161 z M 14.73937 5.188401 C 17.52417 7.216301 19.08127 10.5257 18.86557 13.9659 18.7377 16.0673 17.77447 18.0306 16.18947 19.4188 15.33871 20.1708 14.33787 20.7308 13.25237 21.0618 11.36677 20.67958 9.754669 19.487 8.830269 17.8216 9.228148 18.02246 9.668829 18.15156 10.14077 18.18182 12.42537 18.32544 14.39417 16.59322 14.54087 14.30952 14.71283 11.54332 12.61217 9.16222 9.844969 8.985319 8.815669 8.919683 7.792169 9.12048 6.865669 9.55689 8.620969 6.92299 11.55057 5.285689 14.73947 5.18829 z M 16.83287 5.34083 C 23.26867 6.50733 26.84287 13.60533 23.79687 19.50683 20.80297 25.30663 13.16087 26.56563 8.454869 22.27283 9.254379 22.54196 10.09547 22.67579 10.94167 22.66245 11.80529 22.66245 12.63827 22.54333 13.42847 22.32061 L 13.47442 22.30958 13.4928 22.30228 13.50383 22.29858 C 17.22683 21.21248 19.87173 17.91398 20.12043 14.04478 20.32503 10.79748 19.11903 7.63168 16.83233 5.34068 z M 9.45293 10.23668 9.458441 10.23668 C 11.65504 10.19976 13.41574 12.04338 13.27954 14.23398 13.20474 15.34998 12.49749 16.29628 11.50224 16.70768 13.32574 14.66398 10.75205 11.14958 8.085442 12.85008 L 8.067062 12.85738 8.050522 12.86841 C 6.491322 13.93221 5.703022 15.16561 5.324822 16.42831 5.110112 14.96791 5.224202 13.47451 5.668512 12.05971 6.587982 10.91071 7.979812 10.23851 9.452911 10.23661 z M 6.885311 15.91561 C 7.102691 18.23541 8.708911 20.24261 10.70091 21.39431 10.61139 21.39231 10.52174 21.39141 10.43257 21.38701 8.856771 21.28811 7.378571 20.59025 6.29897 19.44071 6.223126 18.22791 6.29418 17.02271 6.88528 15.91571 z " style="stroke:none;fill-rule:evenodd;opacity:1;fill:rgb(255,255,255);" transform="matrix(1.00 0.00 0.00 1.00 84.00 4.00 ) " id="142" />
    <text id="143" transform="matrix(1.00 0.00 0.00 1.00 0.00 0.00 ) " x="84.00px" y="39.00px" style="stroke:none;clip-path:url(#145_text_clipper);font-family:Microsoft Sans Serif;font-size:8.25pt;opacity:1;">
      <tspan dy="8.25pt" id="147">Deserialize</tspan>
    </text>
    <text id="149" transform="matrix(1.00 0.00 0.00 1.00 0.00 0.00 ) " x="84.00px" y="51.45px" style="stroke:none;clip-path:url(#151_text_clipper);font-family:Microsoft Sans Serif;font-size:8.25pt;opacity:1;">
      <tspan dy="8.25pt" id="153">FromJson</tspan>
    </text>
    <path d="M 31.179 5.2 C 34.9985 11.0918 34.9814 18.682 31.13552 24.557 " style="stroke:rgb(169,169,169);fill:none;stroke-linecap:butt;stroke-miterlimit:9;opacity:1;stroke-width:2;stroke-linejoin:miter;" transform="matrix(1.00 0.00 0.00 1.00 4.00 4.00 ) " id="155" />
    <ellipse id="156" cy="15.00" cx="15.00" transform="matrix(1.00 0.00 0.00 1.00 4.00 4.00 ) " rx="15.00" ry="15.00" style="stroke:none;opacity:1;fill:rgb(91,178,126);" />
    <path style="stroke:rgb(255,255,255);fill:none;stroke-linecap:butt;stroke-miterlimit:9;opacity:1;stroke-width:2;stroke-linejoin:miter;" transform="matrix(1.00 0.00 0.00 1.00 4.00 4.00 ) " id="162" d="M 7.3965 19.566 7.3965 10.8433 " />
    <path style="stroke:rgb(255,255,255);fill:none;stroke-linecap:butt;stroke-miterlimit:9;opacity:1;stroke-width:2;stroke-linejoin:miter;" transform="matrix(1.00 0.00 0.00 1.00 4.00 4.00 ) " id="163" d="M 11.085 22.137 14.2178 8.273999 " />
    <ellipse id="164" cy="15.15" cx="20.49" transform="matrix(1.00 0.00 0.00 1.00 4.00 4.00 ) " rx="4.18" ry="4.18" style="stroke:rgb(255,255,255);fill:none;stroke-linecap:butt;stroke-miterlimit:9;opacity:1;stroke-width:2;stroke-linejoin:miter;" />
    <text id="165" transform="matrix(1.00 0.00 0.00 1.00 0.00 0.00 ) " x="4.00px" y="39.00px" style="stroke:none;clip-path:url(#167_text_clipper);font-family:Microsoft Sans Serif;font-size:8.25pt;opacity:1;">
      <tspan dy="8.25pt" id="169">ReadAllText</tspan>
    </text>
  </g>
  <defs id="clips_hatches_and_gradients">
    <clipPath id="56_text_clipper">
      <rect x="324.00" y="39.00" width="62.99" height="27.65" id="57" />
    </clipPath>
    <clipPath id="62_text_clipper">
      <rect x="324.00" y="51.45" width="62.99" height="27.65" id="63" />
    </clipPath>
    <clipPath id="77_text_clipper">
      <rect x="324.00" y="119.00" width="62.99" height="27.65" id="78" />
    </clipPath>
    <clipPath id="83_text_clipper">
      <rect x="324.00" y="131.45" width="62.99" height="27.65" id="84" />
    </clipPath>
    <clipPath id="99_text_clipper">
      <rect x="244.00" y="39.00" width="61.16" height="27.65" id="100" />
    </clipPath>
    <clipPath id="105_text_clipper">
      <rect x="244.00" y="51.45" width="61.16" height="27.65" id="106" />
    </clipPath>
    <clipPath id="121_text_clipper">
      <rect x="244.00" y="119.00" width="62.99" height="27.65" id="122" />
    </clipPath>
    <clipPath id="127_text_clipper">
      <rect x="244.00" y="131.45" width="62.99" height="27.65" id="128" />
    </clipPath>
    <clipPath id="137_text_clipper">
      <rect x="164.00" y="39.00" width="62.99" height="13.83" id="138" />
    </clipPath>
    <clipPath id="145_text_clipper">
      <rect x="84.00" y="39.00" width="59.90" height="27.65" id="146" />
    </clipPath>
    <clipPath id="151_text_clipper">
      <rect x="84.00" y="51.45" width="59.90" height="27.65" id="152" />
    </clipPath>
    <clipPath id="167_text_clipper">
      <rect x="4.00" y="39.00" width="65.51" height="13.83" id="168" />
    </clipPath>
  </defs>
</svg>