<?xml version="1.0" standalone="yes"?>
<!DOCTYPE svg PUBLIC "-//W3C//DTD SVG 1.1//EN" "http://www.w3.org/Graphics/SVG/1.1/DTD/svg11.dtd"[
<!ENTITY E10 'matrix(1.00 0.00 0.00 1.00 84.00 4.00 ) '><!ENTITY E4 'stroke:rgb(169,169,169);fill:none;stroke-linecap:butt;stroke-miterlimit:9;opacity:1;stroke-width:2;stroke-linejoin:miter;'><!ENTITY E2 'matrix(1.00 0.00 0.00 1.00 164.00 4.00 ) '><!ENTITY E12 'M 14.901 4 C 11.0958 4.041768 7.579 6.0409 5.5954 9.2875 2.4509 14.4779 4.0981 21.2285 9.2787 24.3935 10.9214 25.3944 12.8223 25.9511 14.7429 25.998 20.8126 26.12705 25.8419 21.3253 25.9969 15.26 26.15179 9.060902 21.1469 3.969001 14.9489 4.003001 L 14.9433 4.001161 z M 14.73937 5.188401 C 17.52417 7.216301 19.08127 10.5257 18.86557 13.9659 18.7377 16.0673 17.77447 18.0306 16.18947 19.4188 15.33871 20.1708 14.33787 20.7308 13.25237 21.0618 11.36677 20.67958 9.754669 19.487 8.830269 17.8216 9.228148 18.02246 9.668829 18.15156 10.14077 18.18182 12.42537 18.32544 14.39417 16.59322 14.54087 14.30952 14.71283 11.54332 12.61217 9.16222 9.844969 8.985319 8.815669 8.919683 7.792169 9.12048 6.865669 9.55689 8.620969 6.92299 11.55057 5.285689 14.73947 5.18829 z M 16.83287 5.34083 C 23.26867 6.50733 26.84287 13.60533 23.79687 19.50683 20.80297 25.30663 13.16087 26.56563 8.454869 22.27283 9.254379 22.54196 10.09547 22.67579 10.94167 22.66245 11.80529 22.66245 12.63827 22.54333 13.42847 22.32061 L 13.47442 22.30958 13.4928 22.30228 13.50383 22.29858 C 17.22683 21.21248 19.87173 17.91398 20.12043 14.04478 20.32503 10.79748 19.11903 7.63168 16.83233 5.34068 z M 9.45293 10.23668 9.458441 10.23668 C 11.65504 10.19976 13.41574 12.04338 13.27954 14.23398 13.20474 15.34998 12.49749 16.29628 11.50224 16.70768 13.32574 14.66398 10.75205 11.14958 8.085442 12.85008 L 8.067062 12.85738 8.050522 12.86841 C 6.491322 13.93221 5.703022 15.16561 5.324822 16.42831 5.110112 14.96791 5.224202 13.47451 5.668512 12.05971 6.587982 10.91071 7.979812 10.23851 9.452911 10.23661 z M 6.885311 15.91561 C 7.102691 18.23541 8.708911 20.24261 10.70091 21.39431 10.61139 21.39231 10.52174 21.39141 10.43257 21.38701 8.856771 21.28811 7.378571 20.59025 6.29897 19.44071 6.223126 18.22791 6.29418 17.02271 6.88528 15.91571 z '><!ENTITY E13 'stroke:none;fill-rule:evenodd;opacity:1;fill:rgb(255,255,255);'><!ENTITY E17 'matrix(1.00 0.00 0.00 1.00 4.00 4.00 ) '><!ENTITY E1 'stroke:rgb(169,169,169);fill:none;stroke-linecap:butt;stroke-miterlimit:9;opacity:1;stroke-width:1;stroke-linejoin:miter;'><!ENTITY E9 'matrix(1.00 0.00 0.00 1.00 0.00 0.00 ) '>
]>
<svg width="216.6628" height="66.65038" id="SvgGdi_output" xmlns="http://www.w3.org/2000/svg" xmlns:xlink="http://www.w3.org/1999/xlink">
  <style>text { fill: #000; } @media (prefers-color-scheme: dark) { text { fill: #eee; } }</style>
  <rect id="background" height="100.00%" style="fill:none;" width="100.00%" y="0.00" x="0.00" />
  <g style="shape-rendering:auto;" id="root_group">
    <line y1="19.00" style="stroke:rgb(169,169,169);fill:none;stroke-linecap:butt;stroke-miterlimit:9;opacity:1;stroke-width:1;stroke-linejoin:miter;" id="2" x2="160.00" y2="19.00" x1="118.00" />
    <line y1="19.00" style="stroke:rgb(169,169,169);fill:none;stroke-linecap:butt;stroke-miterlimit:9;opacity:1;stroke-width:1;stroke-linejoin:miter;" id="3" x2="80.00" y2="19.00" x1="38.00" />
    <ellipse id="36" cy="15.00" cx="15.00" transform="matrix(1.00 0.00 0.00 1.00 164.00 4.00 ) " rx="15.00" ry="15.00" style="stroke:none;opacity:1;fill:rgb(238,192,75);" />
    <ellipse id="39" cy="15.00" cx="15.00" transform="matrix(1.00 0.00 0.00 1.00 164.00 4.00 ) " rx="15.00" ry="15.00" style="stroke:rgb(169,169,169);fill:none;stroke-linecap:butt;stroke-miterlimit:9;opacity:1;stroke-width:2;stroke-linejoin:miter;" />
    <path transform="matrix(1.00 0.00 0.00 1.00 164.00 4.00 ) " id="43" d="M 11.061 10.763 C 11.061 9.349799 12.2452 7.7226 13.7798 7.4008 15.4144 6.98898 17.2874 7.88198 17.9084 9.4683 18.47393 10.8026 17.97233 12.4332 16.8453 13.3125 16.16579 13.95364 15.1393 14.28144 14.7641 15.2029 14.48171 16.1142 14.56073 17.1532 14.56319 18.0326 " style="stroke:rgb(255,255,255);fill:none;stroke-linecap:butt;stroke-miterlimit:9;opacity:1;stroke-width:2.5;stroke-linejoin:miter;" />
    <ellipse id="44" cy="21.60" cx="14.68" transform="matrix(1.00 0.00 0.00 1.00 164.00 4.00 ) " rx="1.81" ry="1.81" style="stroke:none;opacity:1;fill:rgb(255,255,255);" />
    <text id="45" transform="matrix(1.00 0.00 0.00 1.00 0.00 0.00 ) " x="164.00px" y="39.00px" style="stroke:none;clip-path:url(#47_text_clipper);font-family:Microsoft Sans Serif;font-size:8.25pt;opacity:1;">
      <tspan dy="8.25pt" id="49">Condition</tspan>
    </text>
    <ellipse id="53" cy="15.00" cx="15.00" transform="matrix(1.00 0.00 0.00 1.00 84.00 4.00 ) " rx="15.00" ry="15.00" style="stroke:none;opacity:1;fill:rgb(68,154,223);" />
    <path d="M 14.901 4 C 11.0958 4.041768 7.579 6.0409 5.5954 9.2875 2.4509 14.4779 4.0981 21.2285 9.2787 24.3935 10.9214 25.3944 12.8223 25.9511 14.7429 25.998 20.8126 26.12705 25.8419 21.3253 25.9969 15.26 26.15179 9.060902 21.1469 3.969001 14.9489 4.003001 L 14.9433 4.001161 z M 14.73937 5.188401 C 17.52417 7.216301 19.08127 10.5257 18.86557 13.9659 18.7377 16.0673 17.77447 18.0306 16.18947 19.4188 15.33871 20.1708 14.33787 20.7308 13.25237 21.0618 11.36677 20.67958 9.754669 19.487 8.830269 17.8216 9.228148 18.02246 9.668829 18.15156 10.14077 18.18182 12.42537 18.32544 14.39417 16.59322 14.54087 14.30952 14.71283 11.54332 12.61217 9.16222 9.844969 8.985319 8.815669 8.919683 7.792169 9.12048 6.865669 9.55689 8.620969 6.92299 11.55057 5.285689 14.73947 5.18829 z M 16.83287 5.34083 C 23.26867 6.50733 26.84287 13.60533 23.79687 19.50683 20.80297 25.30663 13.16087 26.56563 8.454869 22.27283 9.254379 22.54196 10.09547 22.67579 10.94167 22.66245 11.80529 22.66245 12.63827 22.54333 13.42847 22.32061 L 13.47442 22.30958 13.4928 22.30228 13.50383 22.29858 C 17.22683 21.21248 19.87173 17.91398 20.12043 14.04478 20.32503 10.79748 19.11903 7.63168 16.83233 5.34068 z M 9.45293 10.23668 9.458441 10.23668 C 11.65504 10.19976 13.41574 12.04338 13.27954 14.23398 13.20474 15.34998 12.49749 16.29628 11.50224 16.70768 13.32574 14.66398 10.75205 11.14958 8.085442 12.85008 L 8.067062 12.85738 8.050522 12.86841 C 6.491322 13.93221 5.703022 15.16561 5.324822 16.42831 5.110112 14.96791 5.224202 13.47451 5.668512 12.05971 6.587982 10.91071 7.979812 10.23851 9.452911 10.23661 z M 6.885311 15.91561 C 7.102691 18.23541 8.708911 20.24261 10.70091 21.39431 10.61139 21.39231 10.52174 21.39141 10.43257 21.38701 8.856771 21.28811 7.378571 20.59025 6.29897 19.44071 6.223126 18.22791 6.29418 17.02271 6.88528 15.91571 z " style="stroke:none;fill-rule:evenodd;opacity:1;fill:rgb(255,255,255);" transform="matrix(1.00 0.00 0.00 1.00 84.00 4.00 ) " id="56" />
    <text id="57" transform="matrix(1.00 0.00 0.00 1.00 0.00 0.00 ) " x="84.00px" y="39.00px" style="stroke:none;clip-path:url(#59_text_clipper);font-family:Microsoft Sans Serif;font-size:8.25pt;opacity:1;">
      <tspan dy="8.25pt" id="61">IsRepository</tspan>
    </text>
    <text id="63" transform="matrix(1.00 0.00 0.00 1.00 0.00 0.00 ) " x="84.00px" y="51.45px" style="stroke:none;clip-path:url(#65_text_clipper);font-family:Microsoft Sans Serif;font-size:8.25pt;opacity:1;">
      <tspan dy="8.25pt" id="67">Clean</tspan>
    </text>
    <path style="stroke:rgb(169,169,169);fill:none;stroke-linecap:butt;stroke-miterlimit:9;opacity:1;stroke-width:2;stroke-linejoin:miter;" transform="matrix(1.00 0.00 0.00 1.00 4.00 4.00 ) " id="72" d="M 31.179 5.2 C 34.9985 11.0918 34.9814 18.682 31.13552 24.557 " />
    <ellipse id="73" cy="15.00" cx="15.00" transform="matrix(1.00 0.00 0.00 1.00 4.00 4.00 ) " rx="15.00" ry="15.00" style="stroke:none;opacity:1;fill:rgb(91,178,126);" />
    <path d="M 14.901 4 C 11.0958 4.041768 7.579 6.0409 5.5954 9.2875 2.4509 14.4779 4.0981 21.2285 9.2787 24.3935 10.9214 25.3944 12.8223 25.9511 14.7429 25.998 20.8126 26.12705 25.8419 21.3253 25.9969 15.26 26.15179 9.060902 21.1469 3.969001 14.9489 4.003001 L 14.9433 4.001161 z M 14.73937 5.188401 C 17.52417 7.216301 19.08127 10.5257 18.86557 13.9659 18.7377 16.0673 17.77447 18.0306 16.18947 19.4188 15.33871 20.1708 14.33787 20.7308 13.25237 21.0618 11.36677 20.67958 9.754669 19.487 8.830269 17.8216 9.228148 18.02246 9.668829 18.15156 10.14077 18.18182 12.42537 18.32544 14.39417 16.59322 14.54087 14.30952 14.71283 11.54332 12.61217 9.16222 9.844969 8.985319 8.815669 8.919683 7.792169 9.12048 6.865669 9.55689 8.620969 6.92299 11.55057 5.285689 14.73947 5.18829 z M 16.83287 5.34083 C 23.26867 6.50733 26.84287 13.60533 23.79687 19.50683 20.80297 25.30663 13.16087 26.56563 8.454869 22.27283 9.254379 22.54196 10.09547 22.67579 10.94167 22.66245 11.80529 22.66245 12.63827 22.54333 13.42847 22.32061 L 13.47442 22.30958 13.4928 22.30228 13.50383 22.29858 C 17.22683 21.21248 19.87173 17.91398 20.12043 14.04478 20.32503 10.79748 19.11903 7.63168 16.83233 5.34068 z M 9.45293 10.23668 9.458441 10.23668 C 11.65504 10.19976 13.41574 12.04338 13.27954 14.23398 13.20474 15.34998 12.49749 16.29628 11.50224 16.70768 13.32574 14.66398 10.75205 11.14958 8.085442 12.85008 L 8.067062 12.85738 8.050522 12.86841 C 6.491322 13.93221 5.703022 15.16561 5.324822 16.42831 5.110112 14.96791 5.224202 13.47451 5.668512 12.05971 6.587982 10.91071 7.979812 10.23851 9.452911 10.23661 z M 6.885311 15.91561 C 7.102691 18.23541 8.708911 20.24261 10.70091 21.39431 10.61139 21.39231 10.52174 21.39141 10.43257 21.38701 8.856771 21.28811 7.378571 20.59025 6.29897 19.44071 6.223126 18.22791 6.29418 17.02271 6.88528 15.91571 z " style="stroke:none;fill-rule:evenodd;opacity:1;fill:rgb(255,255,255);" transform="matrix(1.00 0.00 0.00 1.00 4.00 4.00 ) " id="74" />
    <text id="75" transform="matrix(1.00 0.00 0.00 1.00 0.00 0.00 ) " x="4.00px" y="39.00px" style="stroke:none;clip-path:url(#77_text_clipper);font-family:Microsoft Sans Serif;font-size:8.25pt;opacity:1;">
      <tspan dy="8.25pt" id="79">Create</tspan>
    </text>
    <text id="81" transform="matrix(1.00 0.00 0.00 1.00 0.00 0.00 ) " x="4.00px" y="51.45px" style="stroke:none;clip-path:url(#83_text_clipper);font-family:Microsoft Sans Serif;font-size:8.25pt;opacity:1;">
      <tspan dy="8.25pt" id="85">Repository</tspan>
    </text>
  </g>
  <defs id="clips_hatches_and_gradients">
    <clipPath id="47_text_clipper">
      <rect x="164.00" y="39.00" width="51.66" height="13.83" id="48" />
    </clipPath>
    <clipPath id="59_text_clipper">
      <rect x="84.00" y="39.00" width="66.70" height="27.65" id="60" />
    </clipPath>
    <clipPath id="65_text_clipper">
      <rect x="84.00" y="51.45" width="66.70" height="27.65" id="66" />
    </clipPath>
    <clipPath id="77_text_clipper">
      <rect x="4.00" y="39.00" width="57.88" height="27.65" id="78" />
    </clipPath>
    <clipPath id="83_text_clipper">
      <rect x="4.00" y="51.45" width="57.88" height="27.65" id="84" />
    </clipPath>
  </defs>
</svg>