<?xml version="1.0" standalone="yes"?>
<!DOCTYPE svg PUBLIC "-//W3C//DTD SVG 1.1//EN" "http://www.w3.org/Graphics/SVG/1.1/DTD/svg11.dtd"[
<!ENTITY E1 'matrix(1.00 0.00 0.00 1.00 4.00 4.00 ) '><!ENTITY E8 'matrix(1.00 0.00 0.00 1.00 0.00 0.00 ) '>
]>
<svg width="79.82827" height="66.65038" id="SvgGdi_output" xmlns="http://www.w3.org/2000/svg" xmlns:xlink="http://www.w3.org/1999/xlink">
  <style>text { fill: #000; } @media (prefers-color-scheme: dark) { text { fill: #eee; } }</style>
  <rect id="background" height="100.00%" style="fill:none;" width="100.00%" y="0.00" x="0.00" />
  <g style="shape-rendering:auto;" id="root_group">
    <ellipse id="34" cy="15.00" cx="15.00" transform="matrix(1.00 0.00 0.00 1.00 4.00 4.00 ) " rx="15.00" ry="15.00" style="stroke:none;opacity:1;fill:rgb(238,192,75);" />
    <path transform="matrix(1.00 0.00 0.00 1.00 4.00 4.00 ) " id="37" style="stroke:rgb(169,169,169);fill:none;stroke-linecap:butt;stroke-miterlimit:9;opacity:1;stroke-width:2;stroke-linejoin:miter;" d="M 1.5363 7.8 C 1.99103 6.9385 2.52798 6.1205 3.1403 5.3587 3.7527 4.5967 4.4403 3.8909 5.1968 3.254 5.95315 2.617 6.7782 2.049 7.665299 1.5627 M 0.4537992 19.4997 C 0.1435492 18.4956 -0.05714077 17.4835 -0.1564507 16.4769 -0.2551987 15.4701 -0.2516447 14.4684 -0.1525816 13.4844 -0.05334165 12.5007 0.1414284 11.5347 0.4251484 10.5993 M 7.892348 28.3993 C 7.030958 27.9447 6.212848 27.4077 5.450948 26.7954 4.689008 26.1831 3.983248 25.4954 3.346348 24.739 2.709558 23.9826 2.141548 23.1575 1.655148 22.2704 M 19.49415 29.4993 C 18.48995 29.8096 17.47785 30.0103 16.47125 30.1096 15.46445 30.2084 14.46285 30.2049 13.47895 30.1018 12.49507 30.0028 11.52915 29.8079 10.59365 29.5242 M 28.46365 22.0993 C 28.00892 22.9606 27.472 23.7788 26.85965 24.5407 26.24738 25.3026 25.55945 26.0084 24.80315 26.6453 24.0468 27.2822 23.22175 27.8502 22.33465 28.3365 M 29.54565 10.4995 C 29.85594 11.5037 30.05659 12.5157 30.15594 13.5224 30.25481 14.5292 30.25114 15.531 30.15199 16.5147 30.05279 17.4986 29.85802 18.4646 29.5743 19.4 M 22.10769 1.499998 C 22.96908 1.954698 23.7872 2.491698 24.5491 3.103898 25.31104 3.716298 26.0168 4.404098 26.65369 5.160398 27.29052 5.916898 27.85859 6.741898 28.34499 7.629098 M 10.50499 0.3999977 C 11.50919 0.08969772 12.52109 -0.1109023 13.52779 -0.2103023 14.53469 -0.3090023 15.53619 -0.3055023 16.52009 -0.2103023 17.50401 -0.1111023 18.46999 0.08369771 19.40549 0.3673977 " />
    <path transform="matrix(1.00 0.00 0.00 1.00 4.00 4.00 ) " id="40" d="M 14.901 4 C 11.0958 4.041768 7.579 6.0409 5.5954 9.2875 2.4509 14.4779 4.0981 21.2285 9.2787 24.3935 10.9214 25.3944 12.8223 25.9511 14.7429 25.998 20.8126 26.12705 25.8419 21.3253 25.9969 15.26 26.15179 9.060902 21.1469 3.969001 14.9489 4.003001 L 14.9433 4.001161 z M 14.73937 5.188401 C 17.52417 7.216301 19.08127 10.5257 18.86557 13.9659 18.7377 16.0673 17.77447 18.0306 16.18947 19.4188 15.33871 20.1708 14.33787 20.7308 13.25237 21.0618 11.36677 20.67958 9.754669 19.487 8.830269 17.8216 9.228148 18.02246 9.668829 18.15156 10.14077 18.18182 12.42537 18.32544 14.39417 16.59322 14.54087 14.30952 14.71283 11.54332 12.61217 9.16222 9.844969 8.985319 8.815669 8.919683 7.792169 9.12048 6.865669 9.55689 8.620969 6.92299 11.55057 5.285689 14.73947 5.18829 z M 16.83287 5.34083 C 23.26867 6.50733 26.84287 13.60533 23.79687 19.50683 20.80297 25.30663 13.16087 26.56563 8.454869 22.27283 9.254379 22.54196 10.09547 22.67579 10.94167 22.66245 11.80529 22.66245 12.63827 22.54333 13.42847 22.32061 L 13.47442 22.30958 13.4928 22.30228 13.50383 22.29858 C 17.22683 21.21248 19.87173 17.91398 20.12043 14.04478 20.32503 10.79748 19.11903 7.63168 16.83233 5.34068 z M 9.45293 10.23668 9.458441 10.23668 C 11.65504 10.19976 13.41574 12.04338 13.27954 14.23398 13.20474 15.34998 12.49749 16.29628 11.50224 16.70768 13.32574 14.66398 10.75205 11.14958 8.085442 12.85008 L 8.067062 12.85738 8.050522 12.86841 C 6.491322 13.93221 5.703022 15.16561 5.324822 16.42831 5.110112 14.96791 5.224202 13.47451 5.668512 12.05971 6.587982 10.91071 7.979812 10.23851 9.452911 10.23661 z M 6.885311 15.91561 C 7.102691 18.23541 8.708911 20.24261 10.70091 21.39431 10.61139 21.39231 10.52174 21.39141 10.43257 21.38701 8.856771 21.28811 7.378571 20.59025 6.29897 19.44071 6.223126 18.22791 6.29418 17.02271 6.88528 15.91571 z " style="stroke:none;fill-rule:evenodd;opacity:1;fill:rgb(255,255,255);" />
    <text id="41" transform="matrix(1.00 0.00 0.00 1.00 0.00 0.00 ) " x="4.00px" y="39.00px" style="stroke:none;clip-path:url(#43_text_clipper);font-family:Microsoft Sans Serif;font-size:8.25pt;opacity:1;">
      <tspan dy="8.25pt" id="45">GenerateRoot</tspan>
    </text>
    <text id="47" transform="matrix(1.00 0.00 0.00 1.00 0.00 0.00 ) " x="4.00px" y="51.45px" style="stroke:none;clip-path:url(#49_text_clipper);font-family:Microsoft Sans Serif;font-size:8.25pt;opacity:1;">
      <tspan dy="8.25pt" id="51">LoggingPath</tspan>
    </text>
  </g>
  <defs id="clips_hatches_and_gradients">
    <clipPath id="43_text_clipper">
      <rect x="4.00" y="39.00" width="74.83" height="27.65" id="44" />
    </clipPath>
    <clipPath id="49_text_clipper">
      <rect x="4.00" y="51.45" width="74.83" height="27.65" id="50" />
    </clipPath>
  </defs>
</svg>