<?xml version="1.0" standalone="yes"?><!DOCTYPE svg PUBLIC "-//W3C//DTD SVG 1.1//EN" "http://www.w3.org/Graphics/SVG/1.1/DTD/svg11.dtd"[
<!ENTITY E22 'M 11.529 25.444 20.7834 12.908 16.3203 12.908 18.355 4.7687 9.100601 17.3047 13.5637 17.3047 z '><!ENTITY E30 'matrix(1.00 0.00 0.00 1.00 84.00 164.00 ) '><!ENTITY E21 'matrix(1.00 0.00 0.00 1.00 164.00 164.00 ) '><!ENTITY E10 'matrix(1.00 0.00 0.00 1.00 0.00 0.00 ) '><!ENTITY E14 'stroke:none;opacity:1;fill:rgb(155,91,179);'><!ENTITY E17 'stroke:rgb(255,255,255);fill:none;stroke-linecap:butt;stroke-miterlimit:9;opacity:1;stroke-width:1.2496;stroke-linejoin:miter;'><!ENTITY E8 'stroke:none;fill-rule:evenodd;opacity:1;fill:rgb(255,255,255);'><!ENTITY E6 'stroke:rgb(169,169,169);fill:none;stroke-linecap:butt;stroke-miterlimit:9;opacity:1;stroke-width:2;stroke-linejoin:miter;'><!ENTITY E27 'stroke:none;opacity:1;fill:rgb(91,178,126);'><!ENTITY E5 'M 1.5363 7.8 C 1.99103 6.9385 2.52798 6.1205 3.1403 5.3587 3.7527 4.5967 4.4403 3.8909 5.1968 3.254 5.95315 2.617 6.7782 2.049 7.665299 1.5627 M 0.4537992 19.4997 C 0.1435492 18.4956 -0.05714077 17.4835 -0.1564507 16.4769 -0.2551987 15.4701 -0.2516447 14.4684 -0.1525816 13.4844 -0.05334165 12.5007 0.1414284 11.5347 0.4251484 10.5993 M 7.892348 28.3993 C 7.030958 27.9447 6.212848 27.4077 5.450948 26.7954 4.689008 26.1831 3.983248 25.4954 3.346348 24.739 2.709558 23.9826 2.141548 23.1575 1.655148 22.2704 M 19.49415 29.4993 C 18.48995 29.8096 17.47785 30.0103 16.47125 30.1096 15.46445 30.2084 14.46285 30.2049 13.47895 30.1018 12.49507 30.0028 11.52915 29.8079 10.59365 29.5242 M 28.46365 22.0993 C 28.00892 22.9606 27.472 23.7788 26.85965 24.5407 26.24738 25.3026 25.55945 26.0084 24.80315 26.6453 24.0468 27.2822 23.22175 27.8502 22.33465 28.3365 M 29.54565 10.4995 C 29.85594 11.5037 30.05659 12.5157 30.15594 13.5224 30.25481 14.5292 30.25114 15.531 30.15199 16.5147 30.05279 17.4986 29.85802 18.4646 29.5743 19.4 M 22.10769 1.499998 C 22.96908 1.954698 23.7872 2.491698 24.5491 3.103898 25.31104 3.716298 26.0168 4.404098 26.65369 5.160398 27.29052 5.916898 27.85859 6.741898 28.34499 7.629098 M 10.50499 0.3999977 C 11.50919 0.08969772 12.52109 -0.1109023 13.52779 -0.2103023 14.53469 -0.3090023 15.53619 -0.3055023 16.52009 -0.2103023 17.50401 -0.1111023 18.46999 0.08369771 19.40549 0.3673977 '><!ENTITY E1 'stroke:rgb(169,169,169);fill:none;stroke-linecap:butt;stroke-miterlimit:9;opacity:1;stroke-width:1;stroke-linejoin:miter;'><!ENTITY E39 'matrix(1.00 0.00 0.00 1.00 4.00 164.00 ) '><!ENTITY E28 'stroke:none;opacity:1;fill:rgb(255,255,255);'><!ENTITY E3 'matrix(1.00 0.00 0.00 1.00 164.00 4.00 ) '><!ENTITY E26 'matrix(1.00 0.00 0.00 1.00 84.00 84.00 ) '><!ENTITY E7 'M 14.901 4 C 11.0958 4.041768 7.579 6.0409 5.5954 9.2875 2.4509 14.4779 4.0981 21.2285 9.2787 24.3935 10.9214 25.3944 12.8223 25.9511 14.7429 25.998 20.8126 26.12705 25.8419 21.3253 25.9969 15.26 26.15179 9.060902 21.1469 3.969001 14.9489 4.003001 L 14.9433 4.001161 z M 14.73937 5.188401 C 17.52417 7.216301 19.08127 10.5257 18.86557 13.9659 18.7377 16.0673 17.77447 18.0306 16.18947 19.4188 15.33871 20.1708 14.33787 20.7308 13.25237 21.0618 11.36677 20.67958 9.754669 19.487 8.830269 17.8216 9.228148 18.02246 9.668829 18.15156 10.14077 18.18182 12.42537 18.32544 14.39417 16.59322 14.54087 14.30952 14.71283 11.54332 12.61217 9.16222 9.844969 8.985319 8.815669 8.919683 7.792169 9.12048 6.865669 9.55689 8.620969 6.92299 11.55057 5.285689 14.73947 5.18829 z M 16.83287 5.34083 C 23.26867 6.50733 26.84287 13.60533 23.79687 19.50683 20.80297 25.30663 13.16087 26.56563 8.454869 22.27283 9.254379 22.54196 10.09547 22.67579 10.94167 22.66245 11.80529 22.66245 12.63827 22.54333 13.42847 22.32061 L 13.47442 22.30958 13.4928 22.30228 13.50383 22.29858 C 17.22683 21.21248 19.87173 17.91398 20.12043 14.04478 20.32503 10.79748 19.11903 7.63168 16.83233 5.34068 z M 9.45293 10.23668 9.458441 10.23668 C 11.65504 10.19976 13.41574 12.04338 13.27954 14.23398 13.20474 15.34998 12.49749 16.29628 11.50224 16.70768 13.32574 14.66398 10.75205 11.14958 8.085442 12.85008 L 8.067062 12.85738 8.050522 12.86841 C 6.491322 13.93221 5.703022 15.16561 5.324822 16.42831 5.110112 14.96791 5.224202 13.47451 5.668512 12.05971 6.587982 10.91071 7.979812 10.23851 9.452911 10.23661 z M 6.885311 15.91561 C 7.102691 18.23541 8.708911 20.24261 10.70091 21.39431 10.61139 21.39231 10.52174 21.39141 10.43257 21.38701 8.856771 21.28811 7.378571 20.59025 6.29897 19.44071 6.223126 18.22791 6.29418 17.02271 6.88528 15.91571 z '><!ENTITY E42 'matrix(1.00 0.00 0.00 1.00 4.00 244.00 ) '><!ENTITY E15 'M 11.656 8.2 11.99975 8.7 16.31225 14.7937 11.65605 21.4187 11.28105 21.9187 14.74985 21.9187 14.8436 21.7624 17.9998 17.0124 18.46855 17.7 21.15605 21.7624 21.2498 21.9187 24.7498 21.9187 24.40605 21.4187 19.65605 14.6687 24.06225 8.699997 24.406 8.199997 20.9998 8.199997 20.90605 8.324997 18.68725 11.4187 C 18.46251 11.7285 18.22333 12.1062 17.9685 12.4812 17.77046 12.1547 17.58677 11.8424 17.31225 11.4187 L 15.28105 8.356197 15.1873 8.199997 11.6561 8.199997 z '><!ENTITY E35 'matrix(1.00 0.00 0.00 1.00 84.00 244.00 ) '><!ENTITY E13 'matrix(1.00 0.00 0.00 1.00 164.00 84.00 ) '><!ENTITY E12 'M 10.158 33.2 C 3.4054 31.7591 -1.861 26.4692 -3.271 19.71 '><!ENTITY E4 'stroke:none;opacity:1;fill:rgb(238,192,75);'><!ENTITY E25 'M 31.179 5.2 C 34.9985 11.0918 34.9814 18.682 31.13552 24.557 '>
]><svg width="239.8283" height="306.6504" id="SvgGdi_output" xmlns="http://www.w3.org/2000/svg" xmlns:xlink="http://www.w3.org/1999/xlink"><rect id="background" height="100.00%" style="fill:rgb(255,255,255);" width="100.00%" y="0.00" x="0.00" /><g style="shape-rendering:auto;" id="root_group"><line y1="99.00" style="&E1;" id="78" x2="160.00" y2="99.00" x1="118.00" /><line y1="179.00" style="&E1;" id="79" x2="160.00" y2="179.00" x1="118.00" /><line y1="259.00" id="80" x2="160.00" y2="179.00" x1="118.00" style="stroke-dasharray:4.00 2.00 ;stroke:rgb(169,169,169);fill:none;stroke-linecap:butt;stroke-miterlimit:9;opacity:1;stroke-width:1;stroke-linejoin:miter;" /><line y1="179.00" style="&E1;" id="81" x2="80.00" y2="179.00" x1="38.00" /><line y1="259.00" style="&E1;" id="82" x2="80.00" y2="259.00" x1="38.00" /><ellipse id="83" cy="15.00" cx="15.00" transform="&E3;" rx="15.00" ry="15.00" style="&E4;" /><path d="&E5;" style="&E6;" transform="&E3;" id="84" /><path d="&E7;" style="&E8;" transform="&E3;" id="85" /><text id="86" transform="&E10;" x="164.00px" y="39.00px" style="stroke:none;clip-path:url(#88_text_clipper);font-family:Microsoft Sans Serif;fill:rgb(0,0,0);font-size:8.25pt;opacity:1;"><tspan dy="8.25pt" id="90">GenerateRoot</tspan></text><text id="92" transform="&E10;" x="164.00px" y="51.45px" style="stroke:none;clip-path:url(#94_text_clipper);font-family:Microsoft Sans Serif;fill:rgb(0,0,0);font-size:8.25pt;opacity:1;"><tspan dy="8.25pt" id="96">LoggingPath</tspan></text><path d="&E12;" style="&E6;" transform="&E13;" id="98" /><ellipse id="99" cy="15.00" cx="15.00" transform="&E13;" rx="15.00" ry="15.00" style="&E14;" /><path d="&E15;" style="&E8;" transform="&E13;" id="100" /><path style="&E17;" transform="&E13;" id="101" d="M 7.8593 10.494 8.8954 9.65137 13.0189 14.72177 11.9886 15.5597 " /><path style="&E17;" transform="&E13;" id="102" d="M 5.1002 16.975 7.6877 14.8707 " /><path style="&E8;" transform="&E13;" id="103" d="M 8.8501 16.342 6.484699 13.4335 10.1863 12.8393 9.518199 14.5907 z " /><text id="104" transform="&E10;" x="164.00px" y="119.00px" style="stroke:none;clip-path:url(#106_text_clipper);font-family:Microsoft Sans Serif;fill:rgb(0,0,0);font-size:8.25pt;opacity:1;"><tspan dy="8.25pt" id="108">DeviceEvents</tspan></text><path d="&E12;" style="&E6;" transform="&E21;" id="110" /><ellipse id="111" cy="15.00" cx="15.00" transform="&E21;" rx="15.00" ry="15.00" style="&E14;" /><path d="&E22;" style="&E8;" transform="&E21;" id="112" /><text id="113" transform="&E10;" x="164.00px" y="199.00px" style="stroke:none;clip-path:url(#115_text_clipper);font-family:Microsoft Sans Serif;fill:rgb(0,0,0);font-size:8.25pt;opacity:1;"><tspan dy="8.25pt" id="117">Message</tspan></text><text id="119" transform="&E10;" x="164.00px" y="211.45px" style="stroke:none;clip-path:url(#121_text_clipper);font-family:Microsoft Sans Serif;fill:rgb(0,0,0);font-size:8.25pt;opacity:1;"><tspan dy="8.25pt" id="123">Writer</tspan></text><path d="&E25;" style="&E6;" transform="&E26;" id="125" /><ellipse id="126" cy="15.00" cx="15.00" transform="&E26;" rx="15.00" ry="15.00" style="&E27;" /><path d="&E22;" style="&E8;" transform="&E26;" id="127" /><ellipse id="128" cy="99.00" cx="84.00" rx="3.00" ry="3.00" style="&E6;" /><ellipse id="129" cy="99.00" cx="84.00" rx="3.00" ry="3.00" style="&E28;" /><text id="130" transform="&E10;" x="84.00px" y="119.00px" style="stroke:none;clip-path:url(#132_text_clipper);font-family:Microsoft Sans Serif;fill:rgb(0,0,0);font-size:8.25pt;opacity:1;"><tspan dy="8.25pt" id="134">Device</tspan></text><ellipse id="136" cy="15.00" cx="15.00" transform="&E30;" rx="15.00" ry="15.00" style="&E4;" /><path d="&E22;" style="&E8;" transform="&E30;" id="137" /><text id="138" transform="&E10;" x="84.00px" y="199.00px" style="stroke:none;clip-path:url(#140_text_clipper);font-family:Microsoft Sans Serif;fill:rgb(0,0,0);font-size:8.25pt;opacity:1;"><tspan dy="8.25pt" id="142">GroupBy</tspan></text><text id="144" transform="&E10;" x="84.00px" y="211.45px" style="stroke:none;clip-path:url(#146_text_clipper);font-family:Microsoft Sans Serif;fill:rgb(0,0,0);font-size:8.25pt;opacity:1;"><tspan dy="8.25pt" id="148">Register</tspan></text><path transform="&E35;" id="150" style="stroke:none;fill-rule:evenodd;opacity:1;fill:rgb(128,128,128);" d="M 15 0 C 15.40124 0 15.79355 0 16.1868 0.032679 L 17.4764 1.671279 C 18.19501 1.803959 18.878 1.976879 19.5521 2.217729 L 21.4286 1.483419 C 22.13968 1.823279 22.8289 2.226899 23.4726 2.670219 L 23.8493 4.621219 C 24.39461 5.086599 24.9133 5.605469 25.3788 6.150719 L 27.3298 6.494379 C 27.77262 7.137679 28.17707 7.860779 28.5166 8.57128 L 27.74584 10.44788 C 27.98674 11.12204 28.19601 11.80508 28.32852 12.52348 L 29.96712 13.81308 C 29.99807 14.2062 30.00009 14.59888 30.00009 14.99988 30.00009 15.39224 29.99671 15.76908 29.96712 16.15388 L 28.32852 17.43998 C 28.19832 18.14633 28.01721 18.85248 27.78226 19.51558 L 28.51657 21.42868 C 28.17593 22.14291 27.77461 22.82648 27.32977 23.47268 L 25.37877 23.81302 C 24.91321 24.35829 24.39455 24.87682 23.84927 25.34242 L 23.47257 27.32992 C 22.82847 27.77371 22.14007 28.17669 21.42857 28.51662 L 19.51567 27.74597 C 18.85121 27.98162 18.18377 28.19809 17.47627 28.32876 L 16.18677 29.93436 C 15.79348 29.965 15.40117 29.99982 14.99997 29.99982 14.59873 29.99982 14.17345 29.96607 13.78017 29.93436 L 12.55997 28.32876 C 11.86172 28.19999 11.14067 27.977 10.48427 27.74597 L 8.571372 28.51662 C 7.856242 28.17558 7.174472 27.7755 6.527372 27.32992 L 6.150662 25.30622 C 5.617232 24.84794 5.114162 24.34789 4.657562 23.81302 L 2.670162 23.47268 C 2.225282 22.82649 1.823962 22.14288 1.483362 21.42868 L 2.254122 19.51558 C 2.022912 18.85918 1.800192 18.13838 1.671442 17.43998 L 0.06584227 16.18678 C 0.03489427 15.79366 -9.272993E-05 15.4013 -9.272993E-05 14.99998 -9.272993E-05 14.59894 0.03489527 14.20625 0.06584227 13.81318 L 1.671442 12.52358 C 1.801892 11.81616 2.018542 11.14888 2.254122 10.48438 L 1.483362 8.571277 C 1.822922 7.860797 2.227392 7.137677 2.670162 6.494377 L 4.657562 6.150717 C 5.114192 5.615747 5.617242 5.115817 6.150662 4.657517 L 6.527372 2.670117 C 7.174102 2.224717 7.856672 1.824207 8.571372 1.483317 L 10.48427 2.217627 C 11.14757 1.982687 11.85387 1.801607 12.55997 1.671177 L 13.84607 0.0325768 C 14.23082 0.003004799 14.60761 -0.0001021996 14.99987 -0.0001021996 z " /><path transform="&E35;" id="151" d="M 16.849 10.062 23.4027 10.062 M 16.6038 19.6084 23.3505 19.6084 M 12.3075 17.1615 7.5719 21.8971 M 7.577335 17.152 12.31704 21.8917 M 6.564136 10.0047 13.30904 10.0047 M 9.936636 6.6288 9.936636 13.3806 " style="stroke:rgb(255,255,255);fill:none;stroke-linecap:butt;stroke-miterlimit:9;opacity:1;stroke-width:2;stroke-linejoin:miter;" /><ellipse id="152" cy="16.33" cx="19.93" transform="&E35;" rx="1.30" ry="1.30" style="&E28;" /><ellipse id="153" cy="22.83" cx="19.93" transform="&E35;" rx="1.30" ry="1.30" style="&E28;" /><text id="154" transform="&E10;" x="84.00px" y="279.00px" style="stroke:none;clip-path:url(#156_text_clipper);font-family:Microsoft Sans Serif;fill:rgb(0,0,0);font-size:8.25pt;opacity:1;"><tspan dy="8.25pt" id="158">FileName</tspan></text><path d="&E25;" style="&E6;" transform="&E39;" id="160" /><ellipse id="161" cy="15.00" cx="15.00" transform="&E39;" rx="15.00" ry="15.00" style="&E27;" /><path style="&E8;" transform="&E39;" id="162" d="M 4.4028 13 4.93347 11.3266 C 6.15637 11.7667 7.04467 12.1477 7.598371 12.4698 7.45224 11.0476 7.37533 10.0696 7.36764 9.5352 L 9.040441 9.5352 C 9.017365 10.3131 8.92891 11.2873 8.775101 12.4581 9.567261 12.0495 10.4748 11.6723 11.4977 11.3266 L 12.02837 13 C 11.05162 13.3302 10.09407 13.5502 9.155771 13.6601 9.624911 14.0766 10.28637 14.819 11.14007 15.8877 L 9.755671 16.8894 C 9.30959 16.2687 8.782761 15.4241 8.175171 14.3554 7.606041 15.4633 7.106171 16.308 6.675471 16.8894 L 5.314171 15.8877 C 6.206311 14.7642 6.844671 14.0216 7.229171 13.6601 6.237041 13.4637 5.294871 13.2437 4.402771 13 z " /><path d="&E15;" style="&E8;" transform="&E39;" id="163" /><text id="164" transform="&E10;" x="4.00px" y="199.00px" style="stroke:none;clip-path:url(#166_text_clipper);font-family:Microsoft Sans Serif;fill:rgb(0,0,0);font-size:8.25pt;opacity:1;"><tspan dy="8.25pt" id="168">DeviceEvents</tspan></text><ellipse id="170" cy="15.00" cx="15.00" transform="&E42;" rx="15.00" ry="15.00" style="&E4;" /><path d="&E5;" style="&E6;" transform="&E42;" id="171" /><path d="&E7;" style="&E8;" transform="&E42;" id="172" /><text id="173" transform="&E10;" x="4.00px" y="279.00px" style="stroke:none;clip-path:url(#175_text_clipper);font-family:Microsoft Sans Serif;fill:rgb(0,0,0);font-size:8.25pt;opacity:1;"><tspan dy="8.25pt" id="177">GenerateHarp</tspan></text><text id="179" transform="&E10;" x="4.00px" y="291.45px" style="stroke:none;clip-path:url(#181_text_clipper);font-family:Microsoft Sans Serif;fill:rgb(0,0,0);font-size:8.25pt;opacity:1;"><tspan dy="8.25pt" id="183">LoggingPath</tspan></text></g><defs id="clips_hatches_and_gradients"><clipPath id="88_text_clipper"><rect x="164.00" y="39.00" width="74.83" height="27.65" id="89" /></clipPath><clipPath id="94_text_clipper"><rect x="164.00" y="51.45" width="74.83" height="27.65" id="95" /></clipPath><clipPath id="106_text_clipper"><rect x="164.00" y="119.00" width="73.00" height="13.83" id="107" /></clipPath><clipPath id="115_text_clipper"><rect x="164.00" y="199.00" width="49.64" height="27.65" id="116" /></clipPath><clipPath id="121_text_clipper"><rect x="164.00" y="211.45" width="49.64" height="27.65" id="122" /></clipPath><clipPath id="132_text_clipper"><rect x="84.00" y="119.00" width="38.36" height="13.83" id="133" /></clipPath><clipPath id="140_text_clipper"><rect x="84.00" y="199.00" width="48.38" height="27.65" id="141" /></clipPath><clipPath id="146_text_clipper"><rect x="84.00" y="211.45" width="48.38" height="27.65" id="147" /></clipPath><clipPath id="156_text_clipper"><rect x="84.00" y="279.00" width="52.28" height="13.83" id="157" /></clipPath><clipPath id="166_text_clipper"><rect x="4.00" y="199.00" width="73.00" height="13.83" id="167" /></clipPath><clipPath id="175_text_clipper"><rect x="4.00" y="279.00" width="75.45" height="27.65" id="176" /></clipPath><clipPath id="181_text_clipper"><rect x="4.00" y="291.45" width="75.45" height="27.65" id="182" /></clipPath></defs></svg>