<?xml version="1.0" encoding="UTF-8" standalone="no"?>
<!-- Created with Inkscape (http://www.inkscape.org/) -->

<svg
   width="30"
   height="30"
   viewBox="0 0 7.9374998 7.9375"
   version="1.1"
   id="svg1"
   inkscape:version="1.3 (0e150ed6c4, 2023-07-21)"
   sodipodi:docname="drawing.svg"
   xmlns:inkscape="http://www.inkscape.org/namespaces/inkscape"
   xmlns:sodipodi="http://sodipodi.sourceforge.net/DTD/sodipodi-0.dtd"
   xmlns="http://www.w3.org/2000/svg"
   xmlns:svg="http://www.w3.org/2000/svg">
  <sodipodi:namedview
     id="namedview1"
     pagecolor="#ffffff"
     bordercolor="#000000"
     borderopacity="0.25"
     inkscape:showpageshadow="2"
     inkscape:pageopacity="0.0"
     inkscape:pagecheckerboard="0"
     inkscape:deskcolor="#d1d1d1"
     inkscape:document-units="mm"
     inkscape:zoom="5.8511223"
     inkscape:cx="23.84158"
     inkscape:cy="11.194434"
     inkscape:window-width="1920"
     inkscape:window-height="1017"
     inkscape:window-x="-8"
     inkscape:window-y="-8"
     inkscape:window-maximized="1"
     inkscape:current-layer="layer1" />
  <defs
     id="defs1" />
  <g
     inkscape:label="Layer 1"
     inkscape:groupmode="layer"
     id="layer1">
    <path
       d="M 3.9412,0.91377594 C 2.8847169,0.92540394 1.9086458,1.4801358 1.3580372,2.3818684 0.48517926,3.8234375 0.94210072,5.6994087 2.3801016,6.5781327 2.8361304,6.8561502 3.3641636,7.0101599 3.8971972,7.0231607 5.582099,7.0589464 6.9788158,5.7257167 7.021394,4.0409729 7.0644741,2.3151906 5.6684423,0.89739534 3.9422,0.91377594 Z M 3.897197,1.1467906 C 4.7057203,1.7284984 5.1585959,2.6848629 5.0962727,3.6789501 5.0593238,4.2856616 4.7813457,4.8524199 4.3242241,5.2530492 4.0756171,5.4729045 3.7821416,5.6360223 3.4641699,5.7310794 2.8530235,5.6115112 2.3394734,5.1996246 2.0900834,4.6290099 2.2300922,4.7350166 2.4001029,4.804021 2.5871147,4.8160217 3.2039115,4.8548151 3.7355751,4.3867005 3.7751895,3.7699558 3.8219598,3.0168417 3.2501335,2.368056 2.497109,2.3198645 2.1538189,2.2979607 1.812164,2.3828505 1.5190474,2.5628798 2.0099793,1.7078431 2.9115422,1.171 3.897197,1.1467906 Z m 0.429027,0.020001 C 6.2728523,1.4127316 7.3816579,3.5198395 6.4820626,5.2635452 5.5824674,7.0072508 3.2227093,7.3248919 1.894071,5.8810888 c 0.2858018,0.1365407 0.5993542,0.2050019 0.9160577,0.2000126 0.2390151,0 0.4700296,-0.033002 0.6900435,-0.095006 l 0.010001,-0.003 0.006,-0.002 C 4.5479671,5.6813148 5.2813401,4.7671978 5.3502887,3.6949511 5.410422,2.7405567 5.0332209,1.8106179 4.3252242,1.1677919 Z M 2.3901023,2.5728804 C 3.0395379,2.5617041 3.5605371,3.1066785 3.5201735,3.7549549 3.4925629,4.1669469 3.1776245,4.5019877 2.7681261,4.5550053 3.5348407,4.0609743 2.793794,2.9109019 2.0270794,3.4049328 l -0.002,0.002 -0.002,0.001 C 1.5000462,3.7649555 1.290033,4.1899823 1.2190285,4.6130089 1.1026274,4.1169062 1.1226705,3.5985477 1.2770321,3.1129145 1.5460255,2.7722551 1.9560446,2.573324 2.3901023,2.5728804 Z m 0.027002,0.9670609 c 0.5733692,0.00133 0.5713691,0.8613876 -0.002,0.8600542 -0.5733692,-0.00133 -0.5713691,-0.8613876 0.002,-0.8600542 z m -0.709045,0.5220329 c -0.007,0.7700485 0.556035,1.4420909 1.2320776,1.7601109 -0.092258,0.00547 -0.1847594,0.00547 -0.2770174,0 C 2.1996603,5.792958 1.7653868,5.585854 1.4510431,5.2440487 c -0.027002,-0.4040255 0,-0.8140513 0.2570162,-1.1820745 z"
       style="fill:#000000;stroke-width:4.81106"
       id="path1" />
  </g>
</svg>
