<?xml version="1.0" encoding="UTF-8"?>
<svg width="30" height="30" version="1.1" viewBox="0 0 30 30" xmlns="http://www.w3.org/2000/svg">
 <path d="m14.901 4c-3.8052 0.041768-7.322 2.0409-9.3056 5.2875-3.1445 5.1904-1.4973 11.941 3.6833 15.106 1.6427 1.0009 3.5436 1.5576 5.4642 1.6045 6.0697 0.12905 11.099-4.6727 11.254-10.738 0.15489-6.1991-4.85-11.291-11.048-11.257l-0.0056-0.00184zm-0.20953 1.1854c2.7848 2.0279 4.3419 5.3373 4.1262 8.7775-0.12787 2.1014-1.0911 4.0647-2.6761 5.4529-0.85076 0.752-1.8516 1.312-2.9371 1.643-1.8856-0.38222-3.4977-1.5748-4.4221-3.2402 0.39788 0.20086 0.83856 0.32996 1.3105 0.36022 2.2846 0.14362 4.2534-1.5886 4.4001-3.8723 0.17196-2.7662-1.9287-5.1473-4.6959-5.3242-1.0293-0.065636-2.0528 0.13516-2.9793 0.57157 1.7553-2.6339 4.6849-4.2712 7.8738-4.3686zm2.0934 0.15254c6.4358 1.1665 10.01 8.2645 6.964 14.166-2.9939 5.7998-10.636 7.0588-15.342 2.766 0.79951 0.26913 1.6406 0.40296 2.4868 0.38962 0.86362 0 1.6966-0.11912 2.4868-0.34184l0.04595-0.01103 0.01838-0.0073 0.01103-0.0037c3.723-1.0861 6.3679-4.3846 6.6166-8.2538 0.2046-3.2473-1.0014-6.4131-3.2881-8.7041zm-7.3794 4.896h0.00551c2.1966-0.03692 3.9573 1.8067 3.8211 3.9973-0.0748 1.116-0.78205 2.0623-1.7773 2.4737 1.8235-2.0437-0.75019-5.5581-3.4168-3.8576l-0.018379 0.0073-0.016541 0.01103c-1.5592 1.0638-2.3475 2.2972-2.7257 3.5599-0.21471-1.4604-0.10062-2.9538 0.34369-4.3686 0.91947-1.149 2.3113-1.8212 3.7844-1.8231zm-2.5676 5.679c0.21738 2.3198 1.8236 4.327 3.8156 5.4787-0.08952-2e-3 -0.17917-0.0029-0.26834-0.0073-1.5758-0.0989-3.054-0.79676-4.1336-1.9463-0.075844-1.2128-0.00479-2.418 0.58631-3.525z" stroke-width="3.2719"/>
</svg>
